{"title":"Terminator Genisys {2015} HQTS XVID AC3 READNFO-MRG","uid":12097238,"size":1769054441,"categoryP":"video","categoryS":"movies","magnet":"?xt=urn:btih:c486699e2638b1cc9cac981f806d6d65559db90b&amp;dn=Terminator+Genisys+%7B2015%7D+HQTS+XVID+AC3+READNFO-MRG&amp;tr=udp%3A%2F%2Ftracker.openbittorrent.com%3A80&amp;tr=udp%3A%2F%2Fopen.demonii.com%3A1337&amp;tr=udp%3A%2F%2Ftracker.coppersurfer.tk%3A6969&amp;tr=udp%3A%2F%2Fexodus.desync.com%3A6969","seeders":12,"leechers":3,"uploader":"SaM","files":18,"time":1436196789,"description":" &lt;a href=&quot;http://extraimago.com/image/7fG&quot; rel=&quot;nofollow&quot; target=&quot;_NEW&quot;&gt;http://extraimago.com/image/7fG&lt;/a&gt; &lt;a href=&quot;\nhttp://extraimago.com/image/7fr&quot; rel=&quot;nofollow&quot; target=&quot;_NEW&quot;&gt;\nhttp://extraimago.com/image/7fr&lt;/a&gt; &lt;a href=&quot;\nhttp://extraimago.com/image/7fp&quot; rel=&quot;nofollow&quot; target=&quot;_NEW&quot;&gt;\nhttp://extraimago.com/image/7fp&lt;/a&gt; &lt;a href=&quot;\nhttp://extraimago.com/image/7fY&quot; rel=&quot;nofollow&quot; target=&quot;_NEW&quot;&gt;\nhttp://extraimago.com/image/7fY&lt;/a&gt; &lt;a href=&quot;\nhttp://extraimago.com/image/7fC&quot; rel=&quot;nofollow&quot; target=&quot;_NEW&quot;&gt;\nhttp://extraimago.com/image/7fC&lt;/a&gt; &lt;a href=&quot;\nhttp://extraimago.com/image/7fB&quot; rel=&quot;nofollow&quot; target=&quot;_NEW&quot;&gt;\nhttp://extraimago.com/image/7fB&lt;/a&gt; &lt;a href=&quot;\nhttp://extraimago.com/image/7f4&quot; rel=&quot;nofollow&quot; target=&quot;_NEW&quot;&gt;\nhttp://extraimago.com/image/7f4&lt;/a&gt; &lt;a href=&quot;\nhttp://extraimago.com/image/7fe&quot; rel=&quot;nofollow&quot; target=&quot;_NEW&quot;&gt;\nhttp://extraimago.com/image/7fe&lt;/a&gt; &lt;a href=&quot;\nhttp://extraimago.com/image/7fZ&quot; rel=&quot;nofollow&quot; target=&quot;_NEW&quot;&gt;\nhttp://extraimago.com/image/7fZ&lt;/a&gt; &lt;a href=&quot;\nhttp://extraimago.com/image/7fK&quot; rel=&quot;nofollow&quot; target=&quot;_NEW&quot;&gt;\nhttp://extraimago.com/image/7fK&lt;/a&gt; &lt;a href=&quot;\nhttp://extraimago.com/image/7fJ&quot; rel=&quot;nofollow&quot; target=&quot;_NEW&quot;&gt;\nhttp://extraimago.com/image/7fJ&lt;/a&gt; &lt;a href=&quot;\nhttp://extraimago.com/image/7f0&quot; rel=&quot;nofollow&quot; target=&quot;_NEW&quot;&gt;\nhttp://extraimago.com/image/7f0&lt;/a&gt; &lt;a href=&quot;\nhttp://extraimago.com/image/7fz&quot; rel=&quot;nofollow&quot; target=&quot;_NEW&quot;&gt;\nhttp://extraimago.com/image/7fz&lt;/a&gt; &lt;a href=&quot;\nhttp://extraimago.com/image/7fU&quot; rel=&quot;nofollow&quot; target=&quot;_NEW&quot;&gt;\nhttp://extraimago.com/image/7fU&lt;/a&gt;\n\n..............Terminator Genisys {2015} TS XVID AC3 READNFO-MRG...................\n..................................................................................\nnfo: fixed AR filterd vid..:)added line audio frm CM8...thanks guys...sweet as\n     allways....\n..................................................................................\nFormat                      : AVI\nFormat/Info                 : Audio Video Interleave\nFile size                   : 1.64 GiB\nDuration                    : 1h 57mn\nOverall bit rate            : 2 013 Kbps\nWriting library             : VirtualDub build 35491/release\n\nVideo\nID                          : 0\nFormat                      : MPEG-4 Visual\nFormat profile              : Advanced Simple@L5\nFormat settings, BVOP       : 2\nFormat settings, QPel       : No\nFormat settings, GMC        : No warppoints\nFormat settings, Matrix     : Default (H.263)\nCodec ID                    : XVID\nCodec ID/Hint               : XviD\nDuration                    : 1h 57mn\nBit rate                    : 1 745 Kbps\nWidth                       : 720 pixels\nHeight                      : 304 pixels\nDisplay aspect ratio        : 2.35:1\nFrame rate                  : 30.000 fps\nColor space                 : YUV\nChroma subsampling          : 4:2:0\nBit depth                   : 8 bits\nScan type                   : Progressive\nCompression mode            : Lossy\nBits/(Pixel*Frame)          : 0.266\nStream size                 : 1.43 GiB (87%)\nWriting library             : XviD 73\n\nAudio\nID                          : 1\nFormat                      : AC-3\nFormat/Info                 : Audio Coding 3\nMode extension              : CM (complete main)\nFormat settings, Endianness : Big\nCodec ID                    : 2000\nDuration                    : 1h 56mn\nBit rate mode               : Constant\nBit rate                    : 256 Kbps\nChannel(s)                  : 2 channels\nChannel positions           : Front: L R\nSampling rate               : 48.0 KHz\nBit depth                   : 16 bits\nCompression mode            : Lossy\nStream size                 : 214 MiB (13%)\nAlignment                   : Split accross interleaves\nInterleave, duration        : 33 ms (1.00 video frame)\nInterleave, preload duratio : 500 ms\n\n&lt;a class=&quot;__cf_email__&quot; href=&quot;/cdn-cgi/l/email-protection&quot; data-cfemail=&quot;79140c0b1d4a0b39110c0a14181015571a1614&quot;&gt;[email&amp;#160;protected]&lt;/a&gt;&lt;script data-cfhash='f9e31' type=&quot;text/javascript&quot;&gt;\n/* &lt;![CDATA[ */!function(){try{var t=&quot;currentScript&quot;in document?document.currentScript:function(){for(var t=document.getElementsByTagName(&quot;script&quot;),e=t.length;e--;)if(t[e].getAttribute(&quot;data-cfhash&quot;))return t[e]}();if(t&amp;&amp;t.previousSibling){var e,r,n,i,c=t.previousSibling,a=c.getAttribute(&quot;data-cfemail&quot;);if(a){for(e=&quot;&quot;,r=parseInt(a.substr(0,2),16),n=2;a.length-n;n+=2)i=parseInt(a.substr(n,2),16)^r,e+=String.fromCharCode(i);e=document.createTextNode(e),c.parentNode.replaceChild(e,c)}t.parentNode.removeChild(t);}}catch(u){}}()/* ]]&gt; */&lt;/script&gt;","torrent":{"xt":"urn:btih:c486699e2638b1cc9cac981f806d6d65559db90b","amp;dn":"Terminator+Genisys+%7B2015%7D+HQTS+XVID+AC3+READNFO-MRG","amp;tr":["udp%3A%2F%2Ftracker.openbittorrent.com%3A80","udp%3A%2F%2Fopen.demonii.com%3A1337","udp%3A%2F%2Ftracker.coppersurfer.tk%3A6969","udp%3A%2F%2Fexodus.desync.com%3A6969"],"infoHash":"c486699e2638b1cc9cac981f806d6d65559db90b","infoHashBuffer":{"type":"Buffer","data":[196,134,105,158,38,56,177,204,156,172,152,31,128,109,109,101,85,157,185,11]},"announce":[],"urlList":[]}}